<svg width="25" height="24" viewBox="0 0 25 24" fill="none" xmlns="http://www.w3.org/2000/svg">
<path d="M24.048 12C24.048 18.6272 18.6644 24 12.024 24C5.38353 24 0 18.6272 0 12C0 5.37278 5.38353 0 12.024 0C18.6644 0 24.048 5.37278 24.048 12Z" fill="#CB2128"/>
<path d="M12.9943 16.0693C12.0858 15.9983 11.7039 15.5492 10.9911 15.1168C10.5987 17.1681 10.1204 19.1349 8.70128 20.1626C8.2638 17.0616 9.34389 14.7324 9.84625 12.2612C8.9912 10.8231 9.9488 7.92959 11.7541 8.64301C13.975 9.51959 9.83053 13.9877 12.6134 14.5455C15.5176 15.1283 16.7033 9.51632 14.9022 7.69055C12.2994 5.0552 7.32607 7.63103 7.93833 11.4038C8.08695 12.3259 9.04247 12.6058 8.31926 13.8791C6.65417 13.5106 6.15705 12.1996 6.22092 10.4521C6.32452 7.59128 8.79651 5.58815 11.2769 5.31028C14.4145 4.96026 17.3585 6.45997 17.7646 9.40448C18.2218 12.7281 16.3485 16.3273 12.9943 16.0693Z" fill="#F2F2F2"/>
</svg>
