<svg width="118" height="33" viewBox="0 0 118 33" fill="none" xmlns="http://www.w3.org/2000/svg">
<g clip-path="url(#clip0_429_24536)">
<path d="M101.87 16.02C101.87 11.6417 105.175 8.58537 109.553 8.58537C113.931 8.58537 117.236 11.6823 117.236 16.02C117.236 20.3152 113.931 23.4547 109.553 23.4547C105.175 23.4547 101.87 20.3159 101.87 16.02ZM112.858 16.02C112.858 13.955 111.577 12.468 109.553 12.468C107.529 12.468 106.249 13.9543 106.249 16.02C106.249 18.0851 107.529 19.572 109.553 19.572C111.577 19.572 112.858 18.0858 112.858 16.02ZM98.9383 12.5498C99.227 13.1287 99.3508 13.748 99.3508 14.4094C99.3508 16.02 98.5252 17.4245 97.2032 18.5808C99.0208 19.4896 100.095 21.5546 100.095 23.5784C100.095 27.3374 97.0795 29.8156 92.4942 29.8156C87.9097 29.8156 84.8946 27.3374 84.8946 23.5791C84.8946 21.5546 85.9684 19.4896 87.786 18.5808C86.4228 17.4245 85.6384 16.02 85.6384 14.4094C85.6384 11.1461 88.1991 8.70911 92.2468 8.70911C94.6425 8.70911 95.3444 9.12226 96.7076 9.12226C97.6164 9.12226 98.2358 8.99853 99.3508 8.4204C99.7227 8.21418 100.012 8.13098 100.26 8.13098C100.796 8.13098 101.086 8.66786 101.086 9.37044C101.127 10.7742 100.467 12.0136 98.9383 12.5505V12.5498ZM95.84 23.4547C95.84 21.7616 94.56 20.6046 92.5362 20.6046C90.5117 20.6046 89.2317 21.7616 89.2317 23.4547C89.2317 25.0654 90.6361 26.3048 92.5362 26.3048C94.3943 26.3048 95.84 25.0248 95.84 23.4547ZM89.8923 14.6568C89.8923 16.0613 91.0905 17.2176 92.5362 17.2176C94.0231 17.2176 95.1794 16.0613 95.1794 14.6576C95.1794 13.1287 94.1056 12.0961 92.5362 12.0961C90.9661 12.1374 89.8923 13.1287 89.8923 14.6568ZM82.912 16.2675V21.4728C82.912 22.4634 82.5401 22.9178 81.4663 22.9178H80.0206C78.9469 22.9178 78.575 22.5054 78.575 21.4721V16.392C78.575 15.112 78.3687 14.2024 77.9143 13.5831C77.4187 12.9637 76.6749 12.633 75.7248 12.633C74.8167 12.633 73.9904 12.9637 73.4535 13.5831C72.9579 14.1612 72.6272 15.112 72.6272 16.3507V21.4309C72.6272 22.5047 72.2141 22.8766 71.1815 22.8766H69.7358C68.7446 22.8766 68.2902 22.5047 68.2902 21.4309V9.74164C68.2902 9.08031 68.6208 8.75035 69.1165 8.75035C69.8603 8.75035 70.8928 9.37044 71.6772 10.568C72.8342 9.20475 74.6098 8.50289 76.3449 8.50289C78.4512 8.50289 80.1444 9.246 81.2601 10.5267C82.3751 11.8899 82.912 13.5418 82.912 16.2675ZM60.3598 4.57898C60.3598 3.25702 61.4336 2.22449 62.8381 2.22449C64.16 2.22449 65.3163 3.25702 65.3163 4.57826C65.3163 5.85898 64.16 6.93346 62.8381 6.93346C61.4336 6.93346 60.3598 5.85969 60.3598 4.57898ZM60.6493 21.4721V10.568C60.6493 9.57666 61.0212 9.12226 62.095 9.12226H63.5399C64.6137 9.12226 64.9856 9.53471 64.9856 10.568V21.5134C64.9856 22.5047 64.6137 22.9591 63.5399 22.9591H62.0942C61.0617 22.9178 60.6486 22.5047 60.6486 21.4728L60.6493 21.4721ZM53.0489 21.4721V7.75906C53.0489 4.33151 54.9902 2.34822 56.5604 2.34822C57.056 2.34822 57.386 2.67889 57.386 3.33951V21.5134C57.386 22.5872 56.9735 22.9591 55.9403 22.9591H54.4946C53.4621 22.9178 53.0489 22.5466 53.0489 21.4728V21.4721ZM35.1645 16.02C35.1645 11.6417 38.469 8.58537 42.8473 8.58537C47.2256 8.58537 50.5294 11.6823 50.5294 16.02C50.5294 20.3152 47.2249 23.4547 42.8473 23.4547C38.469 23.4547 35.1645 20.3159 35.1645 16.02ZM46.1511 16.02C46.1511 13.955 44.8711 12.468 42.8473 12.468C40.8235 12.468 39.5428 13.9543 39.5428 16.02C39.5428 18.0851 40.8228 19.572 42.8473 19.572C44.8711 19.572 46.1511 18.0858 46.1511 16.02ZM32.9337 10.568V22.2565C32.9337 22.9171 32.6038 23.2478 32.1081 23.2478C31.3643 23.2478 30.3318 22.6277 29.5886 21.4714C28.5149 22.7514 26.8622 23.5365 25.0034 23.5365C23.1453 23.5365 21.6583 22.8752 20.5426 21.8433C19.2626 20.6039 18.56 18.6625 18.56 15.8956V10.5672C18.56 9.57595 18.9319 9.12155 20.0057 9.12155H21.4514C22.5252 9.12155 22.8971 9.534 22.8971 10.5672V15.4824C22.8971 17.1344 23.1865 18.0432 23.7234 18.6213C24.1778 19.1169 24.8384 19.3651 25.6647 19.3651C26.4903 19.3651 27.2754 19.0344 27.7298 18.4976C28.2667 17.9194 28.5561 16.9687 28.5561 15.6062V10.5672C28.5561 9.49346 28.9686 9.12155 30.0011 9.12155H31.4468C32.5206 9.12155 32.9337 9.49346 32.9337 10.5672V10.568ZM15.6274 3.29826V22.216C15.6274 22.8766 15.2974 23.2072 14.8018 23.2072C14.058 23.2072 13.0254 22.5872 12.2823 21.4309C11.3735 22.5047 9.51469 23.4547 7.36713 23.4547C3.07131 23.4547 0.179932 20.2746 0.179932 16.02C0.179932 11.8067 3.11255 8.58537 7.36713 8.58537C8.93655 8.58537 10.299 9.08102 11.3323 9.78289V7.75906C11.3323 4.33151 13.2736 2.34822 14.843 2.34822C15.3387 2.34822 15.6274 2.67889 15.6274 3.29826ZM11.291 16.02C11.291 13.8725 9.80411 12.468 7.94527 12.468C6.04518 12.468 4.55824 13.8725 4.55824 16.02C4.55824 18.1676 6.04447 19.572 7.94527 19.572C9.80411 19.572 11.291 18.1676 11.291 16.02Z" fill="#8F95B3"/>
</g>
<defs>
<clipPath id="clip0_429_24536">
<rect width="117.333" height="32" fill="white" transform="translate(0.17984 0.802246)"/>
</clipPath>
</defs>
</svg>
