<svg width="69" height="33" viewBox="0 0 69 33" fill="none" xmlns="http://www.w3.org/2000/svg">
<g clip-path="url(#clip0_429_24571)">
<path d="M65.8224 12.8014C64.2295 11.2099 62.1388 10.3331 59.9358 10.3331C58.3244 10.3331 56.7052 10.9333 55.8156 11.5256C53.9738 12.753 52.4592 14.0849 49.7335 17.6064V20.1379C52.046 17.1256 54.2348 14.7512 55.896 13.4449C56.9882 12.5681 58.5377 12.0248 59.9358 12.0248C63.5454 12.0248 66.596 15.0748 66.596 18.6858V20.2097C66.5981 21.089 66.4243 21.9597 66.0848 22.7707C65.7453 23.5818 65.247 24.3167 64.6192 24.9322C63.3548 26.1824 61.6908 26.8714 59.9358 26.8714C56.9697 26.8714 54.3585 24.8348 53.6488 22.0544L52.4563 23.5C53.326 26.4135 56.467 28.5632 59.9358 28.5632C62.1395 28.5632 64.2295 27.6849 65.8224 26.0956C67.4124 24.5041 68.2885 22.4142 68.2885 20.2097V18.6858C68.2885 16.4828 67.4124 14.3914 65.8224 12.8014ZM29.5813 12.0248C30.7304 12.0248 31.7246 12.2716 32.622 12.78C32.9857 12.3342 33.3746 11.9094 33.7868 11.5079C32.8375 10.7825 31.2304 10.3331 29.5813 10.3331C27.2311 10.3331 25.0977 11.18 23.5738 12.7203C22.0613 14.2464 21.2264 16.3648 21.2264 18.6865V28.5632H22.9182V18.6858C22.9182 14.764 25.6581 12.0248 29.5813 12.0248ZM45.6581 28.5639V18.6865C45.6581 15.6501 43.2794 13.2707 40.243 13.2707C38.8279 13.2707 37.4782 13.8439 36.4385 14.8828C35.4003 15.921 34.8272 17.2736 34.8272 18.6872V20.2104C34.8272 23.1452 37.3089 25.6263 40.243 25.6263C41.0472 25.6263 42.1424 25.4286 42.8129 24.8782V23.0904C42.1544 23.6195 41.1987 23.9345 40.243 23.9345C38.1552 23.9345 36.5196 22.2976 36.5196 20.2104V18.6865C36.5196 16.5987 38.1552 14.9646 40.243 14.9646C42.3315 14.9646 43.9664 16.5987 43.9664 18.6865V28.5639H45.6588H45.6581ZM0.337555 17.7052V18.2513C0.337555 21.1847 1.45044 23.9217 3.47213 25.9576C5.48884 27.9893 8.19249 29.1057 11.0839 29.1057C13.4092 29.1057 15.4679 28.5795 17.2058 27.5463C18.6387 26.6915 19.2737 25.8282 19.3285 25.7493V16.6428H10.6736V18.3352H17.6368V25.2245L17.6296 25.2302C16.8147 26.0472 14.8791 27.4133 11.0839 27.4133C8.61133 27.4133 6.32155 26.4711 4.63409 24.7559C2.95444 23.0492 2.02929 20.7381 2.02929 18.252V17.7059C2.02929 15.3578 3.08884 13.0161 4.93347 11.2832C6.80387 9.522 9.27641 8.54189 11.8455 8.54325C14.2462 8.54325 15.9187 8.90805 17.262 9.72156V7.82289C15.8632 7.22769 14.1921 6.96031 11.8455 6.96031C5.60831 6.96031 0.337555 11.8819 0.337555 17.7052ZM29.5813 14.9632C30.2227 14.9632 30.7667 15.0698 31.1998 15.2803C31.4103 14.7548 31.6264 14.3217 31.9415 13.7962C31.4814 13.467 30.3863 13.27 29.5806 13.27C26.4944 13.27 24.1655 15.5975 24.1655 18.6851V28.5624H25.8579V18.6851C25.8579 16.4928 27.3889 14.9632 29.5813 14.9632ZM17.262 12.9777V10.9767C15.731 10.1553 14.0606 9.78911 11.8455 9.78911C9.58556 9.78911 7.44369 10.619 5.81098 12.1216C4.17684 13.6291 3.27587 15.6131 3.27587 17.7059V18.252C3.27587 22.6183 6.77809 26.1688 11.0839 26.1688C14.5868 26.1688 16.024 25.0232 16.3902 24.6606V19.5811H10.6728V21.2721H14.8072V23.8179L14.793 23.8222C14.2604 24.0341 13.156 24.4764 11.0839 24.4764C9.4412 24.4764 7.9052 23.8378 6.75604 22.6744C5.6012 21.5082 4.9676 19.9367 4.9676 18.252V17.7059C4.9676 14.3317 8.11782 11.4823 11.8455 11.4823C14.4247 11.4823 15.95 11.8997 17.262 12.9777ZM57.1994 16.1649C57.9624 15.4033 58.9616 14.9639 59.9358 14.9639C62.0229 14.9639 63.6599 16.598 63.6599 18.6858V20.2097C63.6599 22.2968 62.0229 23.9338 59.9358 23.9338C58.9253 23.9338 57.9489 23.3792 57.1838 22.3744C56.5061 21.4869 56.0673 20.2858 55.9991 19.2071L54.6288 20.8796C54.8983 22.1596 55.5674 23.3856 56.5118 24.2474C57.4874 25.1349 58.7034 25.6256 59.9358 25.6256C62.9224 25.6256 65.3509 23.1957 65.3509 20.2097V18.6858C65.3509 17.2728 64.7792 15.9203 63.7409 14.8821C62.7006 13.8432 61.3502 13.27 59.9365 13.27C59.0419 13.27 57.6197 13.5907 55.9258 15.1146L55.9194 15.1203C55.4657 15.574 54.4012 16.6392 53.7534 17.398C52.664 18.5863 51.0817 20.3804 49.7335 22.1752V24.817C51.2296 22.8942 52.0915 21.8176 53.4981 20.1927C54.7568 18.7228 56.3169 16.9365 57.1987 16.1649H57.1994ZM31.891 20.2097C31.891 22.4142 32.7671 24.5041 34.3571 26.0956C35.9493 27.6849 38.04 28.5632 40.243 28.5632C41.176 28.5632 42.1345 28.364 42.8129 28.0298V26.3381C42.0208 26.6702 41.0636 26.87 40.243 26.87C36.6334 26.87 33.5813 23.82 33.5813 20.209V18.6851C33.5813 15.0741 36.6334 12.0241 40.243 12.0241C42.0378 12.0241 43.7153 12.7111 44.9669 13.9626C46.217 15.2135 46.904 16.8903 46.904 18.6851V28.5624H48.5964V18.3608C48.491 16.2056 47.5637 14.1728 46.0051 12.6805C44.4378 11.1665 42.3891 10.3331 40.243 10.3331C38.04 10.3331 35.9493 11.2099 34.3571 12.8014C32.7671 14.3914 31.8903 16.4828 31.8903 18.6858V20.2097H31.891ZM51.475 13.6604C51.9927 13.0382 52.5288 12.406 53.1646 11.8727V2.93542H51.475V13.6597V13.6604ZM54.4112 11.18V2.93542H56.1022V10.0202C55.6428 10.252 55.0014 10.6929 54.4112 11.18Z" fill="#8F95B3"/>
</g>
<defs>
<clipPath id="clip0_429_24571">
<rect width="68.2667" height="32" fill="white" transform="translate(0.337463 0.802246)"/>
</clipPath>
</defs>
</svg>
