<svg width="102" height="33" viewBox="0 0 102 33" fill="none" xmlns="http://www.w3.org/2000/svg">
<g clip-path="url(#clip0_584_24803)">
<path d="M20.1878 11.9691C22.1572 13.3775 24.5186 14.1328 26.9398 14.1287V9.28607C26.4633 9.28607 25.9876 9.23629 25.5218 9.13815V12.9497C23.1009 12.9534 20.7398 12.1981 18.7705 10.7901V20.6717C18.7705 25.6146 14.7606 29.6217 9.81552 29.6217C7.97018 29.6217 6.25498 29.0642 4.83063 28.1078C5.6638 28.9615 6.65957 29.6396 7.75916 30.1022C8.85875 30.5647 10.0399 30.8022 11.2328 30.8007C16.1785 30.8007 20.1885 26.7936 20.1885 21.85V11.9691H20.1878ZM21.9371 7.08375C20.9367 5.99415 20.322 4.60595 20.1878 3.13282V2.50989H18.8438C19.0096 3.44665 19.3707 4.33802 19.9037 5.12604C20.4366 5.91406 21.1294 6.58109 21.9371 7.08375ZM7.95809 24.3147C7.43116 23.6218 7.13874 22.779 7.12327 21.9086C7.10779 21.0382 7.37007 20.1855 7.87203 19.4743C8.374 18.7631 9.08954 18.2303 9.91481 17.9533C10.7401 17.6763 11.6322 17.6695 12.4616 17.9339V12.9838C11.992 12.9194 11.5181 12.8921 11.0443 12.9021V16.7549C10.6423 16.6273 10.223 16.5626 9.80129 16.5629C8.88006 16.5631 7.98581 16.8739 7.26305 17.4451C6.54028 18.0163 6.03121 18.8146 5.81811 19.7108C5.605 20.607 5.7003 21.549 6.08861 22.3844C6.47692 23.2198 7.13556 23.8998 7.95809 24.3147Z" fill="#999CAB"/>
<path d="M18.7698 10.7901C20.7392 12.1979 23.1003 12.9529 25.5211 12.949V9.13744C24.1419 8.84243 22.889 8.12453 21.9371 7.08375C21.1294 6.58109 20.4366 5.91406 19.9037 5.12604C19.3707 4.33802 19.0096 3.44665 18.8438 2.50989H15.3145V21.85C15.3117 22.7063 15.0406 23.5402 14.5393 24.2344C14.0379 24.9286 13.3316 25.4482 12.5197 25.7202C11.7077 25.9923 10.831 26.003 10.0126 25.7508C9.19426 25.4987 8.4755 24.9965 7.95739 24.3147C7.13401 23.9005 6.47448 23.2206 6.08554 22.385C5.6966 21.5494 5.60101 20.607 5.81423 19.7103C6.02746 18.8137 6.53703 18.0152 7.26048 17.4441C7.98392 16.873 8.87891 16.5628 9.80059 16.5636C10.2344 16.5636 10.6518 16.6311 11.0436 16.7556V12.9021C6.1853 13.0023 2.27775 16.9696 2.27775 21.85C2.27447 24.19 3.1911 26.4375 4.82993 28.1078C6.30369 29.0977 8.03944 29.6251 9.81482 29.6224C14.7606 29.6224 18.7698 25.6146 18.7698 20.6717V10.7901Z" fill="#8F95B3"/>
<path d="M25.5211 9.13814V8.10703C24.2541 8.10892 23.0121 7.75432 21.9371 7.08374C22.8887 8.12511 24.1417 8.84334 25.5211 9.13814ZM18.8438 2.51059C18.8118 2.3257 18.7869 2.14081 18.7698 1.95379V1.33228H13.8966V20.6724C13.8942 21.3704 13.7134 22.0563 13.3714 22.6649C13.0294 23.2735 12.5376 23.7845 11.9426 24.1496C11.3475 24.5146 10.6691 24.7215 9.97162 24.7507C9.27415 24.7798 8.58081 24.6302 7.9574 24.3161C8.47551 24.9979 9.19427 25.5001 10.0126 25.7522C10.831 26.0044 11.7077 25.9937 12.5197 25.7217C13.3317 25.4496 14.0379 24.93 14.5393 24.2358C15.0406 23.5416 15.3117 22.7077 15.3146 21.8514V2.50988H18.8438V2.51059ZM11.0436 12.9021V11.8055C10.6364 11.7497 10.2259 11.7216 9.81482 11.7216C4.86905 11.7216 0.859802 15.7287 0.859802 20.6717C0.859802 23.7707 2.43562 26.5021 4.82994 28.1085C3.19085 26.4383 2.27396 24.1908 2.27705 21.8507C2.27705 16.9703 6.18531 13.0023 11.0436 12.9021Z" fill="#E4E4E4"/>
<path d="M81.9862 25.5698C85.5247 25.5698 88.3933 22.7239 88.3933 19.2146C88.3933 15.7045 85.5247 12.8586 81.9862 12.8586H81.0205C84.5597 12.8586 87.4283 15.7045 87.4283 19.2146C87.4283 22.7239 84.5597 25.5698 81.0205 25.5698H81.9862Z" fill="#8F95B2"/>
<path d="M80.9323 12.8586H79.9673C76.4288 12.8586 73.5595 15.7045 73.5595 19.2146C73.5595 22.7239 76.4288 25.5698 79.9673 25.5698H80.9323C77.3938 25.5698 74.5245 22.7239 74.5245 19.2146C74.5245 15.7045 77.3938 12.8586 80.9323 12.8586Z" fill="#BEBEBE"/>
<path d="M32.2198 9.98582V13.2072H35.9929V25.4816H39.7682V13.2932H42.8402L43.8927 9.98511H32.2198V9.98582ZM63.1154 9.98582V13.2072H66.8893V25.4816H70.6639V13.2932H73.7359L74.789 9.98511H63.1154V9.98582ZM44.596 11.8134C44.5969 11.5724 44.6453 11.3341 44.7383 11.1118C44.8314 10.8896 44.9673 10.6879 45.1384 10.5181C45.3094 10.3484 45.5122 10.2141 45.7351 10.1227C45.9581 10.0314 46.1968 9.98488 46.4377 9.98582C46.6788 9.9847 46.9178 10.0311 47.1409 10.1223C47.3641 10.2136 47.5671 10.3479 47.7383 10.5176C47.9095 10.6873 48.0457 10.8891 48.1389 11.1114C48.2321 11.3338 48.2806 11.5723 48.2817 11.8134C48.2808 12.0545 48.2324 12.2932 48.1393 12.5156C48.0461 12.7381 47.91 12.94 47.7388 13.1098C47.5675 13.2796 47.3644 13.414 47.1412 13.5053C46.918 13.5965 46.6789 13.6429 46.4377 13.6416C46.1968 13.6426 45.9581 13.596 45.7351 13.5047C45.5122 13.4134 45.3094 13.279 45.1384 13.1093C44.9673 12.9396 44.8314 12.7379 44.7383 12.5156C44.6453 12.2934 44.5969 12.055 44.596 11.8141V11.8134ZM44.596 14.948H48.2809V25.4824H44.596V14.948ZM49.8617 9.98511V25.4824H53.5481V21.4781L54.6895 20.4328L58.2877 25.5698H62.2372L57.0582 18.0818L61.7103 13.5542H57.2338L53.5481 17.2107V9.98653H49.8625L49.8617 9.98511ZM89.6221 9.98511V25.4824H93.3092V21.4781L94.4498 20.4328L98.0488 25.5698H101.999L96.82 18.0818L101.471 13.5542H96.9956L93.3092 17.2107V9.98653H89.6221V9.98511ZM81.0205 25.5698C84.559 25.5698 87.4283 22.724 87.4283 19.2146C87.4283 15.7046 84.559 12.8587 81.0205 12.8587H80.933C77.3938 12.8587 74.5252 15.7046 74.5252 19.2146C74.5252 22.724 77.3938 25.5698 80.933 25.5698H81.0205ZM77.8603 19.2146C77.8603 17.5072 79.2562 16.1241 80.9771 16.1241C82.6973 16.1241 84.0925 17.5072 84.0925 19.2146C84.0925 20.9213 82.6973 22.3051 80.9771 22.3051C79.2562 22.3051 77.8603 20.922 77.8603 19.2146Z" fill="#8F95B3"/>
</g>
<defs>
<clipPath id="clip0_584_24803">
<rect width="101.689" height="32" fill="white" transform="translate(0.148682 0.934082)"/>
</clipPath>
</defs>
</svg>
