<svg width="14" height="14" viewBox="0 0 14 14" fill="none" xmlns="http://www.w3.org/2000/svg">
<path d="M12.8326 6.99996L13.5686 5.72796C13.6571 5.57492 13.6811 5.39302 13.6355 5.22224C13.5898 5.05147 13.4783 4.90581 13.3253 4.81729L12.0519 4.08129V2.61462C12.0519 2.43781 11.9817 2.26824 11.8567 2.14322C11.7316 2.01819 11.5621 1.94796 11.3853 1.94796H9.91926L9.18393 0.67529C9.09512 0.522568 8.94974 0.410961 8.77926 0.364624C8.6947 0.341701 8.60644 0.33579 8.51958 0.347234C8.43272 0.358678 8.34899 0.387249 8.27326 0.43129L6.99993 1.16729L5.72659 0.430624C5.57347 0.342222 5.39151 0.318266 5.22073 0.364024C5.04994 0.409783 4.90433 0.521508 4.81593 0.674624L4.07993 1.94796H2.61393C2.43711 1.94796 2.26755 2.01819 2.14252 2.14322C2.0175 2.26824 1.94726 2.43781 1.94726 2.61462V4.08062L0.673926 4.81662C0.597947 4.86033 0.531353 4.91861 0.477969 4.98813C0.424585 5.05765 0.385463 5.13703 0.362852 5.22172C0.34024 5.3064 0.334585 5.39472 0.34621 5.4816C0.357835 5.56847 0.386512 5.6522 0.430592 5.72796L1.16659 6.99996L0.430592 8.27196C0.342585 8.42514 0.318707 8.6069 0.364165 8.77762C0.409622 8.94834 0.520729 9.09416 0.673259 9.18329L1.94659 9.91929V11.3853C1.94659 11.5621 2.01683 11.7317 2.14185 11.8567C2.26688 11.9817 2.43645 12.052 2.61326 12.052H4.07993L4.81593 13.3253C4.87495 13.4262 4.95922 13.51 5.06044 13.5684C5.16167 13.6269 5.27637 13.658 5.39326 13.6586C5.50926 13.6586 5.62459 13.628 5.72726 13.5686L6.99926 12.8326L8.27259 13.5686C8.42567 13.6569 8.60752 13.6809 8.77824 13.6352C8.94896 13.5896 9.09461 13.4782 9.18326 13.3253L9.91859 12.052H11.3846C11.5614 12.052 11.731 11.9817 11.856 11.8567C11.981 11.7317 12.0513 11.5621 12.0513 11.3853V9.91929L13.3246 9.18329C13.4004 9.13946 13.4669 9.08111 13.5202 9.01158C13.5735 8.94204 13.6125 8.86269 13.6351 8.77805C13.6577 8.69342 13.6634 8.60516 13.6519 8.51832C13.6404 8.43148 13.6118 8.34776 13.5679 8.27196L12.8326 6.99996ZM5.33259 3.65996C5.5979 3.66005 5.8523 3.76552 6.03984 3.95318C6.22737 4.14085 6.33268 4.39532 6.33259 4.66062C6.3325 4.92593 6.22703 5.18033 6.03937 5.36787C5.8517 5.55541 5.59723 5.66071 5.33193 5.66062C5.06662 5.66054 4.81222 5.55506 4.62468 5.3674C4.43714 5.17974 4.33184 4.92526 4.33193 4.65996C4.33201 4.39465 4.43749 4.14025 4.62515 3.95271C4.81281 3.76518 5.06729 3.65987 5.33259 3.65996ZM5.53259 10.06L4.46593 9.26062L8.46593 3.92729L9.53259 4.72662L5.53259 10.06ZM8.66593 10.3266C8.53456 10.3266 8.40449 10.3007 8.28314 10.2503C8.16179 10.2 8.05154 10.1263 7.95868 10.0334C7.86582 9.94048 7.79218 9.83018 7.74194 9.70879C7.69171 9.58741 7.66588 9.45732 7.66593 9.32596C7.66597 9.19459 7.69189 9.06452 7.7422 8.94317C7.79251 8.82182 7.86623 8.71157 7.95915 8.61871C8.05207 8.52585 8.16237 8.45221 8.28376 8.40198C8.40514 8.35174 8.53523 8.32591 8.66659 8.32596C8.9319 8.32605 9.1863 8.43152 9.37384 8.61918C9.56137 8.80684 9.66668 9.06132 9.66659 9.32662C9.6665 9.59193 9.56103 9.84633 9.37337 10.0339C9.1857 10.2214 8.93123 10.3267 8.66593 10.3266Z" fill="#24A8AF"/>
</svg>
