<svg xmlns="http://www.w3.org/2000/svg" width="1440" height="720" fill="none" xmlns:v="https://vecta.io/nano"><mask id="A" maskUnits="userSpaceOnUse" x="0" y="0" width="1440" height="720" mask-type="alpha"><path fill="#00ddb3" d="M0 0h1440v720H0z"/></mask><g mask="url(#A)"><g opacity=".6" filter="url(#B)"><path d="M996.5-467c149.95 0 271.5 121.555 271.5 271.5v260c0 149.945-121.55 271.5-271.5 271.5h-552C294.555 336 173 214.445 173 64.5v-260C173-345.445 294.555-467 444.5-467h552z" fill="url(#C)"/></g><path transform="matrix(-1 0 0 1 1440 0)" fill="url(#D)" d="M0 0h1440v720H0z"/><path fill="url(#E)" d="M0 0h1440v720H0z"/></g><defs><filter id="B" x="-78" y="-718" width="1597" height="1305" filterUnits="userSpaceOnUse" color-interpolation-filters="sRGB"><feFlood flood-opacity="0"/><feBlend in="SourceGraphic"/><feGaussianBlur stdDeviation="125.5"/></filter><linearGradient id="C" x1="1268" y1="64.5" x2="173" y2="64.5" gradientUnits="userSpaceOnUse"><stop stop-color="#00c6ff"/><stop offset="1" stop-color="#00ddb3"/></linearGradient><radialGradient id="D" cx="0" cy="0" r="1" gradientUnits="userSpaceOnUse" gradientTransform="translate(0 -601) rotate(90) scale(1321 2642.09)"><stop stop-color="#00c6ff"/><stop offset="1" stop-color="#fff" stop-opacity="0"/></radialGradient><radialGradient id="E" cx="0" cy="0" r="1" gradientUnits="userSpaceOnUse" gradientTransform="translate(0 -613.5) rotate(90) scale(1333.5 2667.09)"><stop stop-color="#00ddb3"/><stop offset="1" stop-color="#fff" stop-opacity="0"/></radialGradient></defs></svg>